<?xml version="1.0" encoding="UTF-8" standalone="no"?>
<!-- Created with Inkscape (http://www.inkscape.org/) -->

<svg
   xmlns:dc="http://purl.org/dc/elements/1.1/"
   xmlns:cc="http://creativecommons.org/ns#"
   xmlns:rdf="http://www.w3.org/1999/02/22-rdf-syntax-ns#"
   xmlns:svg="http://www.w3.org/2000/svg"
   xmlns="http://www.w3.org/2000/svg"
   xmlns:sodipodi="http://sodipodi.sourceforge.net/DTD/sodipodi-0.dtd"
   xmlns:inkscape="http://www.inkscape.org/namespaces/inkscape"
   width="48.486435mm"
   height="51.868172mm"
   viewBox="0 0 48.486435 51.868172"
   version="1.1"
   id="svg8"
   inkscape:version="0.92.2 5c3e80d, 2017-08-06"
   sodipodi:docname="AMIV_Braeu.svg">
  <defs
     id="defs2" />
  <sodipodi:namedview
     id="base"
     pagecolor="#ffffff"
     bordercolor="#666666"
     borderopacity="1.0"
     inkscape:pageopacity="0.0"
     inkscape:pageshadow="2"
     inkscape:zoom="2.8"
     inkscape:cx="117.20462"
     inkscape:cy="107.81685"
     inkscape:document-units="mm"
     inkscape:current-layer="layer1"
     showgrid="false"
     inkscape:window-width="1276"
     inkscape:window-height="707"
     inkscape:window-x="0"
     inkscape:window-y="91"
     inkscape:window-maximized="0"
     inkscape:measure-start="0,0"
     inkscape:measure-end="0,0"
     fit-margin-top="0"
     fit-margin-left="0"
     fit-margin-right="0"
     fit-margin-bottom="0" />
  <metadata
     id="metadata5">
    <rdf:RDF>
      <cc:Work
         rdf:about="">
        <dc:format>image/svg+xml</dc:format>
        <dc:type
           rdf:resource="http://purl.org/dc/dcmitype/StillImage" />
        <dc:title></dc:title>
      </cc:Work>
    </rdf:RDF>
  </metadata>
  <g
     inkscape:label="Ebene 1"
     inkscape:groupmode="layer"
     id="layer1"
     transform="translate(0.24391962,-245.13183)">
    <path
       style="fill:#282f87;fill-opacity:1;stroke-width:0.08927944"
       d="m 6.783439,290.34447 c -0.1635787,-0.11101 -0.07665,-1.6108 0.099853,-1.72279 0.063187,-0.0401 0.4764674,-0.0737 0.9184006,-0.0746 4.3515134,-0.009 9.4205294,-0.87363 13.5035154,-2.30302 0.493835,-0.17288 0.488732,-0.18583 -0.246694,-0.62633 -0.73873,-0.44248 -0.711851,-0.43858 -0.987656,-0.14336 -0.841229,0.90047 -3.016989,0.54123 -6.555281,-1.08232 -0.39283,-0.18025 -1.04154,-0.44657 -1.441579,-0.59181 -0.802277,-0.29128 -0.984113,-0.43789 -1.028457,-0.82923 -0.02606,-0.22997 -0.09686,-0.28902 -0.565465,-0.47155 -1.1732561,-0.45703 -1.1869167,-0.46622 -1.3337011,-0.897 -0.086709,-0.25448 -0.2691498,-0.51591 -0.4948661,-0.70911 -0.2714318,-0.23234 -0.3927304,-0.4281 -0.5037289,-0.81296 -0.1663267,-0.57671 -0.5039985,-0.9401 -1.4727072,-1.58488 -0.7358108,-0.48976 -0.8516375,-0.61857 -0.7098626,-0.78939 0.085361,-0.10286 -0.00819,-0.21708 -0.5024245,-0.61349 -0.802174,-0.64339 -1.2302627,-1.33268 -1.1441651,-1.84229 l 0.06049,-0.35803 -0.7100733,-0.69493 c -0.7687468,-0.75236 -1.0388787,-1.16056 -0.9064809,-1.36981 0.1641545,-0.25944 -0.062196,-0.60694 -1.1972373,-1.83804 -0.57898699,-0.62799 -0.81066366,-1.28146 -0.4543154,-1.28146 0.1925954,0 0.1577853,-0.1561 -0.1442845,-0.64702 -0.6076032,-0.98749 -0.75663165,-1.6954 -0.44130113,-2.09628 0.23080021,-0.29342 0.225278,-0.43402 -0.0491533,-1.25154 -0.29509561,-0.87907 -0.26878192,-1.18631 0.11611291,-1.35572 0.43015632,-0.18933 0.22147577,-1.39914 -0.55375261,-3.21035 -0.58398315,-1.36439 -0.25394679,-1.63625 0.90886604,-0.74865 0.21445809,0.1637 0.43179999,0.27175 0.48298029,0.24012 0.1974888,-0.12205 -0.278092,-1.70507 -0.73565771,-2.44871 -0.45708948,-0.74287 0.15564398,-0.80676 0.85623941,-0.0893 0.2860799,0.29297 0.6070261,0.45009 0.6861375,0.3359 0.00851,-0.0123 0.038637,-1.04352 0.06696,-2.29165 0.054086,-2.38349 0.1536722,-2.88622 0.360564,-1.82019 0.1953434,1.00653 0.2650563,1.05358 0.5035298,0.33978 0.1148374,-0.34372 0.2099923,-0.64303 0.2114556,-0.66513 0.02038,-0.30772 0.2224656,0.38184 0.3613005,1.23284 0.2330578,1.42852 0.3125191,1.59762 1.0154439,2.16091 0.669952,0.53686 1.2414216,1.4007 1.391237,2.103 0.05114,0.23973 0.1144,0.52974 0.1405776,0.64446 0.026179,0.11473 0.2247423,0.39798 0.4412538,0.62945 l 0.3936572,0.42085 0.081367,0.81121 c 0.060918,0.60734 0.150426,0.95399 0.3561517,1.37934 0.2702686,0.5588 0.5534817,1.58039 0.5534817,1.99649 0,0.17392 0.052117,0.21703 0.2901582,0.23998 0.2642323,0.0255 0.2946766,0.0599 0.3407287,0.38509 0.027814,0.19642 0.161003,0.57187 0.2959747,0.83435 0.1349727,0.26247 0.3249683,0.84178 0.4222132,1.28734 0.1943623,0.89053 0.176218,0.8474 0.5790439,1.37655 0.156367,0.20541 0.337877,0.5825 0.403355,0.83798 0.0887,0.3461 0.196542,0.52402 0.423013,0.6979 1.571507,1.20656 2.390668,2.18035 2.631098,3.12775 0.175,0.68956 0.341868,0.95701 0.687375,1.10167 0.312607,0.13089 1.710702,1.63871 1.865113,2.01149 0.07762,0.18739 0.259416,0.33012 0.659996,0.51817 0.304077,0.14274 0.713616,0.40402 0.910088,0.58062 0.196472,0.1766 0.638452,0.48539 0.982178,0.68621 1.836375,1.07286 2.635596,2.41572 2.368184,3.97902 -0.15406,0.90064 -0.272265,0.79124 1.841032,1.70387 l 1.173716,0.50686 0.968991,-0.40894 c 2.310405,-0.97504 2.172767,-0.83213 2.036032,-2.11408 -0.143472,-1.34509 0.726615,-2.70074 2.336896,-3.64103 0.288397,-0.1684 0.644885,-0.41558 0.792197,-0.54928 0.147311,-0.13371 0.589244,-0.41241 0.982073,-0.61934 0.39283,-0.20693 0.726926,-0.40963 0.742436,-0.45043 0.163494,-0.43012 1.628628,-2.09953 1.920589,-2.18837 0.34379,-0.10461 0.503613,-0.32177 0.684954,-0.93068 0.0977,-0.32804 0.25773,-0.66893 0.355633,-0.75753 0.0979,-0.0886 0.3012,-0.35308 0.451773,-0.58772 0.150573,-0.23465 0.41467,-0.53411 0.586882,-0.66546 0.172212,-0.13135 0.349404,-0.33428 0.393761,-0.45094 0.04436,-0.11667 0.321831,-0.39942 0.616607,-0.62834 0.461648,-0.3585 0.55515,-0.48222 0.674367,-0.89231 0.07612,-0.26186 0.242133,-0.58784 0.368909,-0.72441 0.315326,-0.33967 0.396996,-0.5164 0.872965,-1.889 0.227777,-0.65686 0.513854,-1.3128 0.635726,-1.45764 0.121871,-0.14483 0.221585,-0.33861 0.221585,-0.43061 0,-0.092 0.05205,-0.1994 0.115677,-0.23867 0.06362,-0.0393 0.166022,-0.3928 0.227553,-0.78563 0.06313,-0.40302 0.224989,-0.94764 0.371472,-1.24991 0.190172,-0.39242 0.286781,-0.77444 0.361248,-1.42847 l 0.101652,-0.8928 0.426891,-0.45171 c 0.367988,-0.3894 0.447476,-0.54224 0.576092,-1.10772 0.213086,-0.93686 0.714154,-1.75044 1.427811,-2.31832 0.678807,-0.54014 0.778961,-0.75667 1.031573,-2.23021 0.214031,-1.24849 0.294027,-1.35437 0.502495,-0.66506 0.268844,0.88894 0.38919,0.86429 0.574471,-0.11766 0.187422,-0.9933 0.264787,-0.61162 0.264787,1.30632 0,2.7871 0.128394,3.15205 0.849234,2.41384 0.291551,-0.29858 0.749285,-0.53185 1.047955,-0.53408 0.13425,-10e-4 0.0577,0.23157 -0.202717,0.6159 -0.146536,0.21625 -0.386859,0.76915 -0.534052,1.22866 -0.422348,1.31848 -0.369582,1.44706 0.376597,0.91772 1.11656,-0.7921 1.374226,-0.51719 0.79216,0.84518 -0.200766,0.4699 -0.365029,0.89908 -0.365029,0.95373 0,0.0546 -0.103408,0.43101 -0.229794,0.83638 -0.281624,0.90327 -0.266717,1.31337 0.05043,1.3875 0.386676,0.0904 0.427682,0.43415 0.152561,1.27895 -0.290651,0.89248 -0.296142,1.03714 -0.05119,1.34855 0.271201,0.34477 0.174354,0.88436 -0.324236,1.8065 -0.436432,0.80717 -0.469844,0.92244 -0.267376,0.92244 0.339208,0 0.0912,0.66783 -0.474326,1.27726 -0.968055,1.04321 -1.306921,1.56076 -1.178733,1.80028 0.155008,0.28964 0.01492,0.50056 -0.959451,1.44461 -0.663883,0.64322 -0.739867,0.74886 -0.65403,0.90925 0.23315,0.43564 -0.231567,1.27367 -1.065353,1.92116 -0.493907,0.38356 -0.540676,0.44821 -0.490268,0.67771 0.05153,0.23463 0.01508,0.2784 -0.4847,0.582 -1.089113,0.6616 -1.562906,1.13612 -1.728279,1.73094 -0.12174,0.43787 -0.219255,0.59216 -0.540793,0.85563 -0.305532,0.25036 -0.404793,0.39974 -0.448897,0.67555 -0.05796,0.36248 -0.318032,0.57032 -0.947753,0.75742 -0.760037,0.22581 -1.07013,0.42142 -1.015177,0.64037 0.08173,0.32565 -0.157475,0.52129 -1.018139,0.83271 -0.420738,0.15225 -1.109623,0.43192 -1.530857,0.6215 -2.67227,1.20268 -3.573881,1.46648 -5.035458,1.47331 l -0.966239,0.005 -0.316106,-0.34452 c -0.291058,-0.31722 -0.334758,-0.33623 -0.551511,-0.2399 -0.383217,0.17031 -1.172841,0.66166 -1.172841,0.72982 0,0.17794 2.948778,1.05906 4.889063,1.46088 0.576411,0.11937 1.32925,0.27711 1.672976,0.35054 1.404201,0.29994 5.243612,0.6565 7.378045,0.68519 l 0.949925,0.0128 0.06326,0.84373 c 0.07895,1.05298 0.227766,0.96954 -1.680954,0.94252 -3.209086,-0.0454 -6.434677,-0.48989 -9.845858,-1.35671 -2.52345,-0.64123 -3.350391,-0.89649 -4.529578,-1.39817 -1.313082,-0.55864 -1.201808,-0.55893 -2.459446,0.006 -0.47827,0.21495 -1.147927,0.47032 -1.488127,0.56748 -0.340202,0.0972 -1.000217,0.28669 -1.466702,0.42117 -2.625291,0.75687 -6.260811,1.43126 -8.838664,1.63958 -1.804564,0.14583 -4.049017,0.20558 -4.1876742,0.11149 z m 12.296932,-5.26905 c 0.244721,-0.15514 0.08403,-0.57988 -0.284896,-0.75302 -0.460914,-0.21631 -4.910754,-0.77314 -5.051748,-0.63215 -0.07902,0.079 0.193336,0.19596 0.597579,0.25658 0.216937,0.0325 0.561828,0.12003 0.766425,0.19444 0.204596,0.0744 0.613048,0.20901 0.90767,0.29911 0.294622,0.0901 0.857083,0.28515 1.249912,0.43344 0.715448,0.27008 1.559204,0.3638 1.815058,0.2016 z m 11.87108,-0.2695 c 1.385157,-0.50367 2.346077,-0.80831 2.787131,-0.8836 0.212583,-0.0363 0.405059,-0.12162 0.427726,-0.18962 0.03254,-0.0976 -0.0345,-0.11153 -0.318814,-0.0661 -0.198014,0.0317 -1.037005,0.1198 -1.864425,0.19585 -2.421105,0.22254 -3.012334,0.37331 -3.118221,0.79519 -0.154426,0.61528 0.64585,0.67214 2.086603,0.14825 z m -13.995562,-1.62234 c 0.324924,-0.60713 -0.511115,-0.80494 -4.757184,-1.12561 -1.411588,-0.10661 -0.779366,0.21261 1.598357,0.80704 2.355896,0.58896 2.980409,0.65195 3.158827,0.31857 z m 17.16238,-0.29986 c 2.759688,-0.69015 3.182663,-1.04563 0.913653,-0.76786 -0.39283,0.0481 -1.228254,0.12636 -1.856499,0.17394 -1.578649,0.11954 -2.466505,0.52232 -2.106794,0.95574 0.188736,0.22742 1.149112,0.11347 3.04964,-0.36182 z M 19.3857,282.99308 c 0.379092,-0.43842 -0.278583,-2.11071 -1.213194,-3.08481 -0.648169,-0.67556 -0.761275,-0.45178 -0.323824,0.6407 0.200555,0.50086 0.279541,0.86073 0.304208,1.386 0.05401,1.15009 0.684995,1.69166 1.23281,1.05811 z m 10.094413,0.0201 c 0.289817,-0.25446 0.304332,-0.29747 0.354024,-1.04903 0.03677,-0.55609 0.116639,-0.92945 0.275019,-1.28558 0.817496,-1.83822 -0.174651,-1.34463 -1.14915,0.57169 -0.60706,1.19377 -0.635765,1.72445 -0.104849,1.93836 0.287007,0.11564 0.296459,0.11299 0.624956,-0.17544 z M 17.349398,281.6879 c 0.132274,-0.41676 -1.423708,-3.7661 -1.749592,-3.7661 -0.1222,0 -0.08655,0.34449 0.06621,0.63991 0.07791,0.15066 0.176927,0.64082 0.220039,1.08924 0.146648,1.52539 0.489309,2.19914 1.11844,2.19914 0.205144,0 0.308912,-0.0488 0.344903,-0.16219 z m 14.189961,-0.0945 c 0.272822,-0.28477 0.586862,-1.31904 0.589451,-1.94133 8.42e-4,-0.2023 0.08188,-0.61933 0.180089,-0.92675 0.21177,-0.66289 0.222318,-0.8147 0.05207,-0.74937 -0.402287,0.15437 -1.869249,3.34112 -1.718665,3.73353 0.09396,0.24484 0.615987,0.17729 0.897056,-0.11608 z m -16.599054,6.2e-4 c 0.208167,-0.65587 -0.273034,-0.86735 -2.125118,-0.93396 -0.827146,-0.0297 -1.863802,-0.12022 -2.30368,-0.20105 -0.8095534,-0.14878 -0.9373864,-0.13825 -0.8572483,0.0706 0.186528,0.48608 5.1522423,1.48601 5.2860463,1.06443 z m 20.897508,-0.23718 c 1.681193,-0.42343 2.436527,-0.67476 2.496345,-0.83064 0.0844,-0.21994 -0.01134,-0.22682 -0.924464,-0.0664 -0.485671,0.0853 -1.575283,0.18299 -2.421361,0.21706 l -1.538322,0.062 -0.213438,0.24814 c -0.719798,0.83682 0.217935,0.97016 2.60124,0.36991 z m -20.40449,-1.31464 c -0.002,-0.42327 -0.414517,-1.67235 -0.757961,-2.29487 -0.123142,-0.22321 -0.352698,-0.65694 -0.510124,-0.96383 -0.236455,-0.46097 -0.63697,-0.82413 -0.491867,-0.446 0.199765,0.52058 0.612524,1.93941 0.729841,2.50877 0.228349,1.10823 0.48327,1.57536 0.859691,1.57536 0.143323,0 0.171886,-0.0636 0.17042,-0.37943 z m 17.615705,0.22159 c 0.219073,-0.24208 0.505134,-0.92692 0.512096,-1.22599 0.0052,-0.22218 0.370376,-1.54701 0.707558,-2.56678 0.155632,-0.47069 -0.164045,-0.26924 -0.425028,0.26784 -0.1372,0.28234 -0.358673,0.69907 -0.492161,0.92605 -0.795767,1.35311 -1.034951,3.40827 -0.302465,2.59888 z m -19.608634,-0.24846 c 0.191528,-0.49911 -0.814159,-0.92306 -2.433057,-1.02567 -1.1708706,-0.0742 -1.8039306,-0.15074 -2.6588178,-0.32145 -0.4584044,-0.0915 -0.1742958,0.11182 0.4994676,0.3575 2.5586512,0.933 4.4571452,1.34211 4.5924072,0.98962 z m 23.632198,-0.32007 c 2.174228,-0.65199 3.630694,-1.23348 2.557221,-1.02097 -0.811762,0.16071 -1.389958,0.23171 -2.544464,0.31248 -1.412428,0.0988 -1.777926,0.19106 -2.22853,0.56249 -0.913242,0.75277 -0.0068,0.81249 2.215773,0.146 z m -23.483363,-1.064 c 0.162544,-0.23206 0.100949,-0.52869 -0.443937,-2.13792 -0.675363,-1.99458 -1.181567,-2.78281 -1.075037,-1.67399 0.254737,2.65142 1.007916,4.54155 1.518974,3.81191 z m 21.380265,-0.0871 c 0.392557,-0.36573 0.561131,-0.95242 0.864863,-3.01001 0.228831,-1.55017 0.145994,-1.66578 -0.384259,-0.53626 -1.172296,2.49715 -1.434974,4.4354 -0.480604,3.54627 z M 11.75712,278.25262 c -0.05193,-0.5196 -1.464924,-1.08882 -3.2661822,-1.31577 -0.4281887,-0.0539 -1.1200187,-0.19591 -1.5374,-0.31547 -1.4463332,-0.41429 -1.4606411,-0.0745 -0.02232,0.53018 0.3068981,0.12901 0.7890071,0.33217 1.0713533,0.45147 0.2823462,0.11929 0.9954657,0.36344 1.5847101,0.54255 1.8158408,0.55195 2.2162768,0.5717 2.1698388,0.10704 z m 26.495791,-0.0582 c 1.215779,-0.36689 1.574301,-0.4998 2.755544,-1.02151 1.171293,-0.51731 1.52038,-0.9218 0.605543,-0.70166 -0.871553,0.20973 -2.060402,0.46143 -2.996286,0.63436 -1.056041,0.19513 -2.207087,0.67072 -2.372828,0.98041 -0.30357,0.56722 0.367554,0.60345 2.008027,0.1084 z m -26.409435,-1.23235 c -0.16138,-1.37882 -1.233026,-4.42322 -1.47265,-4.1836 -0.05879,0.0588 0.202075,2.50847 0.346942,3.25798 0.169805,0.87854 1.221402,1.74322 1.125708,0.92562 z m 24.894947,0.046 c 0.535186,-0.4699 0.654828,-0.98033 0.811157,-3.46064 0.08469,-1.34376 -0.272627,-0.82888 -0.819923,1.18147 -0.123825,0.45484 -0.329017,1.1766 -0.455983,1.60392 -0.308398,1.03794 -0.172769,1.235 0.464749,0.67525 z m 3.631582,-0.96307 c 0.255794,-0.0964 0.605695,-0.26314 0.777558,-0.37056 0.171863,-0.10743 0.613797,-0.35454 0.982074,-0.54914 1.039121,-0.54909 1.334815,-0.77458 1.337825,-1.02021 0.0022,-0.18067 -0.214204,-0.13092 -0.861997,0.19815 -0.70493,0.35809 -1.847867,0.66898 -2.466729,0.67096 -0.537178,0.002 -0.90989,0.19022 -1.098941,0.5558 l -0.146642,0.28358 0.288607,0.25787 c 0.316167,0.28249 0.371644,0.28126 1.188245,-0.0265 z m -31.5614646,0.0415 c 0.5421628,-0.37975 -0.065433,-1.11093 -0.923152,-1.11093 -0.6222894,0 -1.6912696,-0.28569 -2.4935962,-0.66643 -1.0626905,-0.50429 -1.2591696,-0.20579 -0.254642,0.38686 2.5282197,1.49161 3.1764973,1.73713 3.6713902,1.3905 z m 0.8629582,-1.5772 c 0.316592,-0.45199 0.034999,-2.06372 -0.7575227,-4.33576 -0.4233104,-1.21357 -0.4920583,-1.06863 -0.4606132,0.97111 0.035352,2.29319 0.128349,2.88784 0.5115489,3.27104 0.3428348,0.34284 0.5159593,0.36577 0.706587,0.0936 z m 29.2663154,0.0215 c 0.439027,-0.34534 0.529432,-0.77479 0.611165,-2.90325 0.107562,-2.80108 0.03688,-2.90565 -0.618544,-0.91512 -0.583385,1.77176 -0.743815,2.41165 -0.758431,3.02509 -0.02039,0.85594 0.28456,1.17183 0.76581,0.79328 z M 7.1151353,273.61999 c 0.065981,-0.57116 -0.6100669,-1.20582 -1.5007891,-1.4089 -0.6418353,-0.14634 -1.5321977,-0.57347 -2.6193936,-1.25659 -1.3405192,-0.84228 -1.2542646,-0.39953 0.2088487,1.07202 1.3682386,1.37614 3.8210047,2.37539 3.911334,1.59347 z m 35.3887057,-0.0184 c 1.278953,-0.62393 2.335637,-1.44647 3.020591,-2.35127 0.746841,-0.98656 0.652905,-1.02942 -0.571632,-0.26083 -1.194267,0.7496 -1.477728,0.88839 -2.376766,1.16371 -1.17457,0.35969 -1.69509,0.78978 -1.695975,1.40133 -6.25e-4,0.44416 0.764345,0.46633 1.623782,0.0471 z M 7.9406854,272.46627 c 0.2530527,-0.47283 -0.2418295,-5.83214 -0.556502,-6.02661 -0.1652964,-0.10216 -0.2050918,0.0768 -0.2666089,1.19866 -0.034149,0.62278 -0.1249198,1.51401 -0.2017118,1.98049 -0.076791,0.46649 -0.1399053,1.20499 -0.1402526,1.64113 l -6.25e-4,0.79297 0.3188348,0.3007 c 0.3669269,0.34606 0.6983652,0.39015 0.8468717,0.11266 z m 32.8128256,0.0409 c 0.530794,-0.34779 0.622284,-1.2691 0.305697,-3.0784 -0.0977,-0.55836 -0.17805,-1.28077 -0.178559,-1.60537 -0.0035,-2.24538 -0.514001,-1.57047 -0.718878,0.95043 -0.04775,0.58752 -0.104738,1.28919 -0.126645,1.55926 -0.170092,2.09697 0.009,2.63891 0.718385,2.17408 z M 5.2373628,270.9083 c 0.5523594,-0.38689 -0.1091227,-1.54712 -0.9644447,-1.69162 -0.2010528,-0.034 -0.9068443,-0.31897 -1.5684255,-0.63333 -1.3770514,-0.65433 -1.2862801,-0.62682 -1.2862801,-0.38993 0,0.38845 1.9107639,2.0459 2.9828011,2.58737 0.6162147,0.31124 0.5815761,0.30596 0.8363492,0.12751 z m 38.5646232,-0.24444 c 1.435231,-0.85201 3.032287,-2.3519 2.776562,-2.60762 -0.02853,-0.0285 -0.563894,0.19085 -1.189699,0.48751 -0.625805,0.29666 -1.361522,0.5978 -1.634927,0.66919 -0.939953,0.24546 -1.5542,1.2928 -0.989979,1.68799 0.24683,0.17289 0.41039,0.13554 1.038043,-0.23707 z M 6.5829808,269.21705 c 0.086407,-0.25612 0.1242805,-0.97572 0.1339191,-2.54446 l 0.013439,-2.18735 -0.3124781,-0.95728 c -0.4116041,-1.26097 -0.4893558,-1.22654 -0.4985587,0.22074 -0.00413,0.65062 -0.083889,1.78558 -0.177225,2.52213 -0.3209328,2.53261 -0.2083363,3.39328 0.4357613,3.33091 0.2434659,-0.0236 0.3020984,-0.0793 0.4051424,-0.38469 z m 35.7245832,0.0893 c 0.175972,-0.35035 0.17024,-1.12498 -0.02299,-3.10692 -0.08521,-0.87405 -0.154937,-2.04919 -0.154937,-2.61143 0,-1.36637 -0.12999,-1.36023 -0.566976,0.0268 l -0.330502,1.04903 0.0031,1.56239 c 0.0033,1.6892 0.125487,3.08524 0.28701,3.27986 0.179574,0.21638 0.634428,0.1007 0.78532,-0.19972 z M 4.2757224,268.1 c 0.2561775,-0.47867 -0.5029995,-1.35709 -1.9200758,-2.22166 -1.2842705,-0.78355 -1.3366838,-0.75409 -0.7085672,0.3982 0.645702,1.18456 2.34114,2.36066 2.628643,1.82346 z m 40.1571436,-0.0344 c 0.943061,-0.47788 1.496107,-0.99243 1.930791,-1.79637 0.628923,-1.16319 0.570073,-1.18874 -0.788148,-0.34221 -1.194879,0.74472 -1.838842,1.4096 -1.838842,1.89856 0,0.52793 0.0762,0.5542 0.696199,0.24002 z m -39.1867082,-2.509 0.2342692,-0.4464 -0.027868,-1.96415 c -0.031232,-2.2012 -0.1470852,-2.98996 -0.5294199,-3.60439 -0.4506344,-0.7242 -0.797669,-0.70762 -0.695194,0.0332 0.027169,0.19642 0.074209,0.93967 0.1045328,1.65167 0.053666,1.26007 0.00947,1.78571 -0.2495887,2.96855 -0.3177795,1.45093 0.5706403,2.49075 1.1632683,1.36151 z m 38.5145582,0.15991 c 0.268228,-0.46109 0.288876,-1.12184 0.06359,-2.03478 -0.185373,-0.7512 -0.194548,-0.92996 -0.140902,-2.74534 0.06743,-2.28189 -0.07502,-2.47938 -0.780845,-1.08257 -0.296125,0.58603 -0.542162,4.50731 -0.331177,5.27825 0.255651,0.93415 0.823564,1.21322 1.189337,0.58444 z M 3.2038013,264.887 c 0.3264047,-0.3264 0.2788197,-0.43101 -1.0356612,-2.27663 -1.33613277,-1.87601 -2.21057097,-2.63769 -1.3939705,-1.2142 0.18591703,0.32409 0.430915,0.81022 0.5444392,1.08029 0.9330576,2.2197 1.4346536,2.86108 1.8851925,2.41054 z m 42.2273757,0.002 c 0.193692,-0.19369 0.883185,-1.52365 1.171583,-2.25987 0.100175,-0.25572 0.360063,-0.77444 0.57753,-1.1527 0.438198,-0.76222 0.446315,-0.78536 0.275426,-0.78536 -0.289525,0 -2.826254,3.44648 -2.826254,3.83984 0,0.43284 0.502514,0.65729 0.801715,0.35809 z M 3.6806338,261.61019 c 0.1804641,-2.72529 -0.1836147,-5.4335 -0.7448101,-5.54028 -0.1136635,-0.0216 -0.1343049,0.16614 -0.1372743,1.24872 -0.00292,1.06414 -0.037818,1.39185 -0.2117298,1.98813 -0.4163154,1.42739 0.1849299,3.63355 0.8877439,3.25741 0.1156963,-0.0619 0.1608387,-0.2709 0.2060703,-0.95398 z m 41.2915542,0.88859 c 0.521796,-0.4432 0.782236,-2.28234 0.458301,-3.23638 -0.155566,-0.45817 -0.206278,-0.85751 -0.240927,-1.89719 -0.04919,-1.47608 -0.149968,-1.66431 -0.454093,-0.84816 -0.362957,0.97404 -0.418485,1.46384 -0.418485,3.69141 0,2.48119 0.08415,2.77534 0.655204,2.29032 z"
       id="path2143"
       inkscape:connector-curvature="0"
       sodipodi:nodetypes="ccccsccccccccccccccscsccccscccccssccccccccscscccccccccccscsccccccccccccsccccccsccccccccscssccccccscccccsscccccsccccccsccssscccccccccccscccccccsccccccccccsccsscccsccssccccccccsccscccccccccccccccccccccccccccscccccccccccccccccccsccccccccccccsccccssccsccsccccccccccccccsccccssccccscccccccccccccccccccccccccscccccccsccccsccccscccsccccscccccccccccccscccsccsccccsscsccccccccccssccccsccccccsc" />
    <text
       xml:space="preserve"
       style="font-style:normal;font-variant:normal;font-weight:normal;font-stretch:normal;font-size:7.76111126px;line-height:125%;font-family:ASAP;-inkscape-font-specification:ASAP;letter-spacing:0px;word-spacing:0px;fill:#282f87;fill-opacity:1;stroke:none;stroke-width:0.26458332px;stroke-linecap:butt;stroke-linejoin:miter;stroke-opacity:1"
       x="6.5642757"
       y="296.94568"
       id="text5197"><tspan
         sodipodi:role="line"
         id="tspan5195"
         x="6.5642757"
         y="296.94568"
         style="font-style:normal;font-variant:normal;font-weight:normal;font-stretch:normal;font-size:7.76111126px;font-family:ASAP;-inkscape-font-specification:ASAP;fill:#282f87;fill-opacity:1;stroke-width:0.26458332px">amiv-bräu</tspan></text>
    <g
       id="g2002"
       transform="matrix(0.1753625,0,0,0.1753625,7.0832345,245.13186)"
       style="fill:#282f87;fill-opacity:1">
      <g
         id="g1990"
         style="fill:#282f87;fill-opacity:1">
        <g
           id="g1986"
           style="fill:#282f87;fill-opacity:1">
          <path
             id="path1954"
             d="m 36.236,108.484 -12.9,2.479 c -0.173,-0.979 -0.464,-1.844 -0.752,-2.537 C 22.3,107.792 21.547,106.07 20.802,105.954 19.372,105.731 3.636,104.371 1.788,103.358 1.267,103.07 -0.014,102.38 0,101.743 0.02,101.113 0,96.388 0,96.388 V 96.37 c 0,0 0.02,-4.723 0,-5.355 -0.014,-0.633 1.267,-1.324 1.788,-1.612 1.848,-1.013 17.584,-2.372 19.014,-2.594 0.745,-0.115 1.499,-1.841 1.782,-2.478 0.288,-0.689 0.579,-1.555 0.752,-2.534 l 12.9,2.479 z"
             inkscape:connector-curvature="0"
             style="fill:#282f87;fill-opacity:1" />
          <path
             id="path1956"
             d="m 45.451,130.582 -10.975,7.223 c -0.534,-0.838 -1.13,-1.521 -1.659,-2.053 -0.51,-0.473 -1.866,-1.781 -2.6,-1.607 -1.404,0.349 -16.461,5.113 -18.557,4.888 -0.59,-0.065 -2.042,-0.224 -2.266,-0.812 -0.229,-0.586 -2.054,-4.945 -2.054,-4.945 l -0.004,-0.018 c 0,0 -1.795,-4.373 -2.047,-4.953 -0.261,-0.572 0.661,-1.711 1.029,-2.17 1.319,-1.645 15.336,-8.924 16.575,-9.673 0.646,-0.394 0.678,-2.272 0.698,-2.971 0,-0.75 -0.06,-1.658 -0.276,-2.628 l 12.868,-2.648 z"
             inkscape:connector-curvature="0"
             style="fill:#282f87;fill-opacity:1" />
          <path
             id="path1958"
             d="m 62.418,147.468 -7.371,10.877 c -0.815,-0.569 -1.628,-0.978 -2.322,-1.262 -0.653,-0.245 -2.404,-0.938 -3.017,-0.49 -1.165,0.853 -13.254,11.021 -15.278,11.614 -0.568,0.161 -1.965,0.574 -2.4,0.118 -0.436,-0.454 -3.791,-3.788 -3.791,-3.788 l -0.015,-0.012 c 0,0 -3.326,-3.354 -3.784,-3.785 -0.456,-0.436 -0.042,-1.834 0.119,-2.408 0.592,-2.02 10.754,-14.107 11.61,-15.277 0.451,-0.607 -0.242,-2.361 -0.486,-3.012 -0.286,-0.689 -0.692,-1.509 -1.259,-2.324 l 10.874,-7.371 z"
             inkscape:connector-curvature="0"
             style="fill:#282f87;fill-opacity:1" />
          <path
             id="path1960"
             d="m 84.558,156.576 -2.654,12.865 c -0.967,-0.209 -1.878,-0.271 -2.627,-0.271 -0.692,0.021 -2.58,0.051 -2.973,0.701 -0.746,1.232 -8.027,15.255 -9.669,16.568 -0.466,0.375 -1.594,1.291 -2.172,1.037 -0.576,-0.261 -4.951,-2.052 -4.951,-2.052 l -0.014,-0.012 c 0,0 -4.356,-1.817 -4.95,-2.043 -0.594,-0.229 -0.746,-1.681 -0.807,-2.271 -0.233,-2.095 4.536,-17.152 4.881,-18.56 0.177,-0.729 -1.13,-2.088 -1.608,-2.597 -0.53,-0.53 -1.212,-1.125 -2.051,-1.661 l 7.227,-10.972 z"
             inkscape:connector-curvature="0"
             style="fill:#282f87;fill-opacity:1" />
          <path
             id="path1962"
             d="m 108.494,156.516 2.477,12.906 c -0.979,0.176 -1.842,0.463 -2.532,0.75 -0.638,0.29 -2.362,1.037 -2.479,1.787 -0.219,1.43 -1.573,17.164 -2.594,19.006 -0.281,0.527 -0.979,1.809 -1.609,1.789 -0.633,-0.018 -5.357,0 -5.357,0 h -0.015 c 0,0 -4.728,-0.018 -5.359,0 -0.63,0.02 -1.332,-1.262 -1.613,-1.781 -1.015,-1.85 -2.373,-17.584 -2.592,-19.014 -0.118,-0.748 -1.847,-1.497 -2.485,-1.785 -0.686,-0.287 -1.553,-0.576 -2.525,-0.752 l 2.472,-12.902 z"
             inkscape:connector-curvature="0"
             style="fill:#282f87;fill-opacity:1" />
          <path
             id="path1964"
             d="m 130.585,147.307 7.227,10.976 c -0.837,0.534 -1.525,1.129 -2.052,1.663 -0.478,0.505 -1.789,1.859 -1.608,2.597 0.344,1.397 5.109,16.46 4.881,18.554 -0.062,0.592 -0.217,2.043 -0.807,2.264 -0.588,0.229 -4.951,2.053 -4.951,2.053 l -0.012,0.004 c 0,0 -4.372,1.798 -4.949,2.057 -0.578,0.252 -1.713,-0.662 -2.177,-1.031 -1.64,-1.321 -8.917,-15.34 -9.667,-16.573 -0.396,-0.648 -2.281,-0.681 -2.973,-0.701 -0.75,-0.004 -1.662,0.067 -2.629,0.276 l -2.652,-12.871 z"
             inkscape:connector-curvature="0"
             style="fill:#282f87;fill-opacity:1" />
          <path
             id="path1966"
             d="m 147.472,130.336 10.874,7.377 c -0.567,0.814 -0.978,1.629 -1.263,2.32 -0.242,0.656 -0.935,2.4 -0.485,3.012 0.851,1.17 11.021,13.255 11.608,15.275 0.166,0.572 0.578,1.974 0.125,2.406 -0.459,0.438 -3.791,3.791 -3.791,3.791 l -0.013,0.008 c 0,0 -3.353,3.332 -3.786,3.787 -0.437,0.465 -1.834,0.047 -2.402,-0.121 -2.022,-0.588 -14.111,-10.754 -15.279,-11.605 -0.612,-0.447 -2.357,0.242 -3.012,0.49 -0.696,0.283 -1.51,0.691 -2.323,1.26 l -7.374,-10.875 z"
             inkscape:connector-curvature="0"
             style="fill:#282f87;fill-opacity:1" />
          <path
             id="path1968"
             d="m 156.578,108.203 12.869,2.646 c -0.216,0.975 -0.281,1.881 -0.281,2.629 0.027,0.694 0.061,2.578 0.707,2.971 1.235,0.753 15.254,8.025 16.571,9.669 0.371,0.46 1.291,1.604 1.032,2.176 -0.257,0.576 -2.051,4.956 -2.051,4.956 l -0.006,0.008 c 0,0 -1.822,4.36 -2.049,4.951 -0.227,0.586 -1.68,0.74 -2.269,0.807 -2.093,0.23 -17.153,-4.537 -18.556,-4.877 -0.739,-0.185 -2.088,1.133 -2.601,1.606 -0.526,0.522 -1.123,1.215 -1.661,2.052 l -10.976,-7.225 z"
             inkscape:connector-curvature="0"
             style="fill:#282f87;fill-opacity:1" />
          <path
             id="path1970"
             d="m 156.517,84.263 12.908,-2.473 c 0.173,0.975 0.461,1.842 0.746,2.526 0.291,0.639 1.041,2.365 1.787,2.484 1.428,0.218 17.164,1.579 19.014,2.59 0.52,0.286 1.803,0.976 1.785,1.616 -0.018,0.63 0,5.355 0,5.355 v 0.008 c 0,0 -0.018,4.729 0,5.359 0.019,0.639 -1.266,1.328 -1.785,1.61 -1.848,1.019 -17.584,2.379 -19.012,2.603 -0.748,0.113 -1.498,1.838 -1.785,2.473 -0.287,0.693 -0.577,1.555 -0.75,2.537 l -12.904,-2.475 z"
             inkscape:connector-curvature="0"
             style="fill:#282f87;fill-opacity:1" />
          <path
             id="path1972"
             d="m 147.308,62.172 10.967,-7.229 c 0.537,0.841 1.135,1.524 1.664,2.054 0.512,0.479 1.864,1.784 2.6,1.608 1.402,-0.347 16.463,-5.111 18.556,-4.881 0.592,0.061 2.044,0.215 2.268,0.805 0.228,0.59 2.05,4.947 2.05,4.947 l 0.008,0.015 c 0,0 1.795,4.371 2.051,4.954 0.26,0.571 -0.661,1.708 -1.031,2.167 -1.316,1.647 -15.338,8.926 -16.572,9.676 -0.646,0.392 -0.678,2.276 -0.699,2.971 0,0.754 0.064,1.661 0.275,2.626 l -12.869,2.652 z"
             inkscape:connector-curvature="0"
             style="fill:#282f87;fill-opacity:1" />
          <path
             id="path1974"
             d="m 130.339,45.29 7.371,-10.881 c 0.815,0.574 1.633,0.977 2.319,1.264 0.654,0.245 2.407,0.936 3.017,0.49 1.166,-0.859 13.255,-11.022 15.277,-11.612 0.569,-0.17 1.967,-0.583 2.404,-0.123 0.43,0.453 3.786,3.791 3.786,3.791 l 0.008,0.007 c 0,0 3.334,3.352 3.789,3.788 0.462,0.432 0.049,1.834 -0.118,2.409 -0.59,2.02 -10.754,14.11 -11.609,15.272 -0.448,0.613 0.246,2.365 0.489,3.014 0.283,0.692 0.691,1.505 1.263,2.321 l -10.879,7.377 z"
             inkscape:connector-curvature="0"
             style="fill:#282f87;fill-opacity:1" />
          <path
             id="path1976"
             d="m 108.197,36.182 2.654,-12.87 c 0.969,0.214 1.878,0.278 2.628,0.278 0.694,-0.02 2.577,-0.053 2.972,-0.704 0.75,-1.234 8.022,-15.253 9.668,-16.574 0.461,-0.369 1.598,-1.287 2.174,-1.03 0.576,0.258 4.947,2.049 4.947,2.049 l 0.018,0.01 c 0,0 4.361,1.822 4.949,2.044 0.592,0.226 0.744,1.677 0.81,2.269 0.229,2.095 -4.537,17.152 -4.88,18.555 -0.184,0.739 1.13,2.091 1.605,2.6 0.528,0.531 1.217,1.128 2.055,1.66 l -7.226,10.977 z"
             inkscape:connector-curvature="0"
             style="fill:#282f87;fill-opacity:1" />
          <path
             id="path1978"
             d="M 84.266,36.239 81.787,23.338 c 0.981,-0.177 1.843,-0.461 2.532,-0.756 0.637,-0.282 2.362,-1.031 2.479,-1.781 C 87.02,19.37 88.38,3.635 89.39,1.793 c 0.287,-0.527 0.981,-1.809 1.611,-1.79 0.629,0.021 5.358,0 5.358,0 h 0.017 c 0,0 4.724,0.016 5.357,-0.003 0.63,-0.016 1.326,1.266 1.612,1.793 1.011,1.842 2.375,17.578 2.594,19.002 0.113,0.752 1.846,1.504 2.479,1.787 0.693,0.29 1.558,0.579 2.537,0.75 l -2.479,12.904 z"
             inkscape:connector-curvature="0"
             style="fill:#282f87;fill-opacity:1" />
          <path
             id="path1980"
             d="m 62.172,45.456 -7.225,-10.97 c 0.838,-0.541 1.523,-1.135 2.053,-1.667 0.476,-0.509 1.784,-1.864 1.605,-2.599 -0.346,-1.4 -5.11,-16.461 -4.884,-18.557 0.066,-0.585 0.221,-2.038 0.809,-2.26 0.585,-0.234 4.947,-2.055 4.947,-2.055 l 0.015,-0.006 c 0,0 4.372,-1.792 4.951,-2.055 0.575,-0.252 1.71,0.663 2.173,1.035 1.646,1.319 8.926,15.339 9.671,16.57 0.392,0.649 2.278,0.681 2.974,0.702 0.75,0.005 1.656,-0.06 2.631,-0.281 l 2.651,12.879 z"
             inkscape:connector-curvature="0"
             style="fill:#282f87;fill-opacity:1" />
          <path
             id="path1982"
             d="M 45.292,62.424 34.411,55.053 c 0.574,-0.815 0.978,-1.631 1.266,-2.325 C 35.92,52.077 36.615,50.327 36.16,49.71 35.307,48.55 25.14,36.459 24.553,34.437 24.384,33.869 23.969,32.471 24.43,32.04 c 0.458,-0.44 3.787,-3.791 3.787,-3.791 l 0.008,-0.017 c 0,0 3.358,-3.327 3.792,-3.789 0.43,-0.453 1.833,-0.036 2.401,0.125 2.024,0.592 14.109,10.753 15.279,11.606 0.604,0.453 2.361,-0.238 3.011,-0.489 0.692,-0.285 1.508,-0.686 2.323,-1.259 l 7.375,10.873 z"
             inkscape:connector-curvature="0"
             style="fill:#282f87;fill-opacity:1" />
          <path
             id="path1984"
             d="M 36.183,84.56 23.315,81.913 c 0.212,-0.974 0.276,-1.881 0.276,-2.629 C 23.571,78.591 23.539,76.707 22.888,76.31 21.655,75.566 7.635,68.286 6.314,66.643 5.943,66.179 5.028,65.049 5.282,64.472 5.54,63.893 7.333,59.52 7.333,59.52 l 0.003,-0.016 c 0,0 1.825,-4.356 2.051,-4.948 0.231,-0.593 1.676,-0.738 2.266,-0.806 2.096,-0.234 17.156,4.534 18.557,4.876 0.737,0.178 2.092,-1.13 2.598,-1.602 0.531,-0.533 1.13,-1.221 1.664,-2.058 l 10.976,7.226 z"
             inkscape:connector-curvature="0"
             style="fill:#282f87;fill-opacity:1" />
        </g>
        <path
           id="path1988"
           d="m 171.091,96.357 c 0,-41.235 -33.428,-74.666 -74.661,-74.666 -41.237,0 -74.669,33.431 -74.669,74.666 0,41.239 33.433,74.663 74.669,74.663 41.234,0 74.661,-33.424 74.661,-74.663 z m -15.554,0 c 0,32.646 -26.464,59.112 -59.106,59.112 -32.648,0 -59.109,-26.466 -59.109,-59.112 0,-32.644 26.46,-59.11 59.109,-59.11 32.642,0 59.106,26.466 59.106,59.11 z"
           inkscape:connector-curvature="0"
           style="fill:#282f87;fill-opacity:1" />
      </g>
      <g
         id="g2000"
         style="fill:#282f87;fill-opacity:1">
        <polygon
           id="polygon1992"
           points="118.203,49.344 118.203,142.68 133.761,143.023 133.761,49.691 "
           style="fill:#282f87;fill-opacity:1" />
        <polygon
           id="polygon1994"
           points="59.098,49.691 121.317,96.357 59.098,143.023 "
           style="fill:#282f87;fill-opacity:1" />
        <rect
           id="rect1996"
           height="12.442"
           width="28"
           y="90.136002"
           x="34.207001"
           style="fill:#282f87;fill-opacity:1" />
        <rect
           id="rect1998"
           height="12.442"
           width="27.997999"
           y="90.136002"
           x="130.649"
           style="fill:#282f87;fill-opacity:1" />
      </g>
    </g>
  </g>
</svg>
