<?xml version="1.0" encoding="UTF-8" standalone="no"?>
<!-- Created with Inkscape (http://www.inkscape.org/) -->

<svg
   xmlns:dc="http://purl.org/dc/elements/1.1/"
   xmlns:cc="http://creativecommons.org/ns#"
   xmlns:rdf="http://www.w3.org/1999/02/22-rdf-syntax-ns#"
   xmlns:svg="http://www.w3.org/2000/svg"
   xmlns="http://www.w3.org/2000/svg"
   xmlns:sodipodi="http://sodipodi.sourceforge.net/DTD/sodipodi-0.dtd"
   xmlns:inkscape="http://www.inkscape.org/namespaces/inkscape"
   id="svg5507"
   sodipodi:docname="Scale_Tilted.svg"
   viewBox="0 0 383.42 187.7"
   version="1.1"
   inkscape:version="0.92.2 5c3e80d, 2017-08-06">
  <defs
     id="defs1246" />
  <title
     id="title4744">Balance</title>
  <sodipodi:namedview
     id="base"
     fit-margin-left="0"
     inkscape:zoom="1.0614888"
     borderopacity="1.0"
     inkscape:current-layer="layer1"
     inkscape:cx="53.561309"
     inkscape:cy="83.170652"
     inkscape:window-maximized="0"
     showgrid="false"
     fit-margin-right="0"
     inkscape:guide-bbox="true"
     showguides="true"
     bordercolor="#666666"
     inkscape:window-x="0"
     inkscape:window-y="73"
     fit-margin-bottom="0"
     inkscape:window-width="1276"
     inkscape:pageopacity="0.0"
     inkscape:pageshadow="2"
     pagecolor="#ffffff"
     inkscape:document-units="px"
     inkscape:window-height="725"
     fit-margin-top="0"
     inkscape:snap-object-midpoints="true"
     inkscape:object-nodes="false" />
  <g
     id="layer1"
     inkscape:label="Calque 1"
     inkscape:groupmode="layer"
     transform="translate(-157.7 -468.35)">
    <path
       id="path5527"
       sodipodi:nodetypes="ccccc"
       style="fill:#ffffff;stroke:#000000;stroke-linecap:round;stroke-linejoin:round"
       inkscape:connector-curvature="0"
       d="m 252.12272,528.16421 199.83126,33.80319 -2.72866,11.53641 C 322.17662,575.03954 306.97686,553.2405 248.71456,540.42589 Z" />
    <path
       id="path5517"
       sodipodi:nodetypes="ccccc"
       style="stroke-linejoin:round;stroke:#000000;stroke-linecap:round;stroke-width:2;fill:#ffffff"
       inkscape:connector-curvature="0"
       d="m334.21 481.7-7.1325 113.69 44.046 2.1127-7.6035-116.47c-5.0959-16.647-23.472-14.674-29.31 0.66615z" />
    <path
       id="path4160"
       sodipodi:nodetypes="ccccc"
       style="fill:#ffffff;stroke:#000000;stroke-linecap:round;stroke-linejoin:round"
       inkscape:connector-curvature="0"
       d="m 461.64,584.74 -0.1951,6.647 h 9.7971 l -0.94208,-5.981 z" />
    <path
       id="path4728"
       sodipodi:nodetypes="ccccc"
       style="stroke-linejoin:round;stroke:#cccccc;stroke-linecap:round;fill:#cccccc"
       inkscape:connector-curvature="0"
       d="m190.3 631.26v19.784h320.3l0.94207-18.841z" />
    <path
       id="path5515"
       sodipodi:nodetypes="ccccccccccccc"
       style="stroke-linejoin:round;stroke:#000000;stroke-linecap:round;stroke-width:2;fill:#ffffff"
       inkscape:connector-curvature="0"
       d="m210.71 591.23-17.44 25.126-11.585 6.6817 0.74287 31.295 16.352 0.45832 10.363-11.314 277.91-0.19601 9.4197 11.767 19.881-0.0119 0.67997-31.93-8.8791-4.3617-13.134-26.597z" />
    <path
       id="path5721"
       d="m 443.72,550.76 0.94207,27.921 c -0.34031,3.658 1.0846,5.5508 4.3195,5.6336 l 31.969,-0.21158 c 2.8819,-0.37418 4.8462,-1.666 5.0695,-4.6988 l 0.0906,-28.644 z"
       sodipodi:nodetypes="ccccccc"
       style="fill:#ffffff;stroke:#000000;stroke-linecap:round;stroke-linejoin:round"
       inkscape:connector-curvature="0" />
    <path
       id="path5723"
       d="m 390.59,522.91 0.14674,11.075 12.396,16.028 122.58,0.0808 14.027,-15.926 0.37231,-11.325 z"
       sodipodi:nodetypes="ccccccc"
       style="fill:#ffffff;stroke:#000000;stroke-width:2;stroke-linecap:round;stroke-linejoin:round"
       inkscape:connector-curvature="0" />
    <path
       id="path5727"
       sodipodi:nodetypes="ccccccc"
       style="fill:#ffffff;stroke:#000000;stroke-linecap:round;stroke-linejoin:round"
       inkscape:connector-curvature="0"
       d="m 214.8,518.76 v 28.977 c 0.19209,2.3623 1.2904,4.8176 4.7012,4.2943 l 33.638,-0.2974 c 2.6428,-0.01 3.9831,-1.3223 3.9613,-3.9969 l 0.0906,-28.977 z" />
    <path
       id="path4158"
       sodipodi:nodetypes="ccccc"
       style="fill:#ffffff;stroke:#000000;stroke-linecap:round;stroke-linejoin:round"
       inkscape:connector-curvature="0"
       d="m 231.82,552.07 0.47104,38.373 h 9.9922 L 241.8122,552.07 Z" />
    <path
       id="path4670"
       sodipodi:nodetypes="ccccc"
       style="stroke-linejoin:round;stroke:#000000;stroke-linecap:round;fill:#ffffff"
       inkscape:connector-curvature="0"
       d="m338.87 484.09-1.9984 31.786h24.647l-2.1935-32.728c-5.0263-15.626-19.197-7.2997-20.455 0.94207z" />
    <path
       id="path4672"
       style="stroke-linejoin:round;stroke:#000000;stroke-linecap:round;fill:#ffffff"
       inkscape:connector-curvature="0"
       d="m183.19 622.03 334.41 0.66615" />
    <path
       id="path4674"
       sodipodi:nodetypes="ccccc"
       style="fill:#ffffff;stroke:#000000;stroke-linecap:round;stroke-linejoin:round"
       inkscape:connector-curvature="0"
       d="m 345.66536,515.81762 8.19901,-27.91234 2.12266,0.58481 -2.86484,27.41577 z" />
    <ellipse
       id="path4716"
       style="stroke-linejoin:round;stroke:#000000;stroke-linecap:round;stroke-width:1.3747;fill:#ffffff"
       transform="matrix(.72762 0 0 .72727 94.548 151.01)"
       d="m 361.7174,557.08246 a 11.324486,10.991413 0 0 1 -11.32449,10.99141 11.324486,10.991413 0 0 1 -11.32448,-10.99141 11.324486,10.991413 0 0 1 11.32448,-10.99141 11.324486,10.991413 0 0 1 11.32449,10.99141 z"
       sodipodi:type="arc"
       sodipodi:ry="10.991413"
       sodipodi:rx="11.324486"
       sodipodi:cy="557.08246"
       sodipodi:cx="350.39291" />
    <path
       id="path4726"
       d="m 390.02,534.21 148.85,-1e-5"
       sodipodi:nodetypes="cc"
       style="fill:#ffffff;stroke:#000000;stroke-linecap:round;stroke-linejoin:round"
       inkscape:connector-curvature="0" />
    <path
       id="path4730"
       d="m 216.01,520.03 v 5.603 h 39.37 l 0.11579,-5.3362 z"
       sodipodi:nodetypes="ccccc"
       style="fill:#cccccc;stroke:#cccccc;stroke-linecap:round;stroke-linejoin:round"
       inkscape:connector-curvature="0" />
    <path
       id="path4732"
       sodipodi:nodetypes="ccccc"
       style="fill:#cccccc;stroke:#cccccc;stroke-linecap:round;stroke-linejoin:round"
       inkscape:connector-curvature="0"
       d="m 445.07,552.03 v 5.603 h 39.703 l 0.11677,-5.3362 z" />
    <path
       id="path4738"
       sodipodi:nodetypes="ccccccc"
       style="fill:#ffffff;stroke:#000000;stroke-width:2;stroke-linecap:round;stroke-linejoin:round"
       inkscape:connector-curvature="0"
       d="m 158.77,490.91 0.14674,11.075 12.396,16.028 122.58,0.0808 14.027,-15.926 0.37231,-11.325 z" />
    <path
       id="path4740"
       sodipodi:nodetypes="cc"
       style="fill:#ffffff;stroke:#000000;stroke-linecap:round;stroke-linejoin:round"
       inkscape:connector-curvature="0"
       d="m 158.2,502.21 148.85,-10e-6" />
  </g>
  <metadata
     id="metadata1243">
    <rdf:RDF>
      <cc:Work>
        <dc:format>image/svg+xml</dc:format>
        <dc:type
           rdf:resource="http://purl.org/dc/dcmitype/StillImage" />
        <cc:license
           rdf:resource="http://creativecommons.org/licenses/publicdomain/" />
        <dc:publisher>
          <cc:Agent
             rdf:about="http://openclipart.org/">
            <dc:title>Openclipart</dc:title>
          </cc:Agent>
        </dc:publisher>
        <dc:title>Balance</dc:title>
        <dc:date>2011-03-23T01:38:11</dc:date>
        <dc:description>A line_art of a scale</dc:description>
        <dc:source>https://openclipart.org/detail/128839/balance--scale-by-lmproulx</dc:source>
        <dc:creator>
          <cc:Agent>
            <dc:title>lmproulx</dc:title>
          </cc:Agent>
        </dc:creator>
        <dc:subject>
          <rdf:Bag>
            <rdf:li>balance</rdf:li>
            <rdf:li>graphic organizer</rdf:li>
            <rdf:li>line art</rdf:li>
            <rdf:li>scale</rdf:li>
            <rdf:li>weight</rdf:li>
          </rdf:Bag>
        </dc:subject>
      </cc:Work>
      <cc:License
         rdf:about="http://creativecommons.org/licenses/publicdomain/">
        <cc:permits
           rdf:resource="http://creativecommons.org/ns#Reproduction" />
        <cc:permits
           rdf:resource="http://creativecommons.org/ns#Distribution" />
        <cc:permits
           rdf:resource="http://creativecommons.org/ns#DerivativeWorks" />
      </cc:License>
    </rdf:RDF>
  </metadata>
</svg>
